# xmcd CD database file
#
# Track frame offsets:
#	150
#	17718
#	32546
#	60533
#	79318
#	93035
#	112746
#	137289
#	157236
#	175877
#
# Disc length: 2646 seconds
#
# Revision: 0
# Processed by: cddbd v1.5.1PL0 Copyright (c) Steve Scherf et al.
# Submitted via: CDex 1.51
#
DISCID=6e0a540a
DTITLE=Mighty Joe Young With His South Side Band - Chicago Blues
DYEAR=2003
DGENRE=Blues
TTITLE0=Rock Me Baby
TTITLE1=Baby Please
TTITLE2=Just A Minute
TTITLE3=Drivin' Wheel
TTITLE4=Wishy Washy Woman
TTITLE5=Early In The Morning
TTITLE6=Sweet Kisses
TTITLE7=Lookin' For You
TTITLE8=It's All Right
TTITLE9=I Have The Same Old Blues
EXTD=YEAR: 2003
EXTT0=
EXTT1=
EXTT2=
EXTT3=
EXTT4=
EXTT5=
EXTT6=
EXTT7=
EXTT8=
EXTT9=
PLAYORDER=
